  <svg
                        xmlns="http://www.w3.org/2000/svg"
                        x="0px"
                        y="0px"
                        width="50"
                        height="50"
                        viewBox="0 0 172 172"
                       
                    >
                        <g transform="translate(-1.72,-1.72) scale(1.02,1.02)">
                            <g
                                fill="none"
                                fill-rule="nonzero"
                                stroke="none"
                                stroke-width="1"
                                stroke-linecap="butt"
                                stroke-linejoin="miter"
                                stroke-miterlimit="10"
                                stroke-dasharray=""
                                stroke-dashoffset="0"
                                font-family="none"
                                font-weight="none"
                                font-size="none"
                                text-anchor="none"
                                
                            >
                                <path
                                    d="M0,172v-172h172v172z"
                                    fill="none"
                                ></path>
                                <g fill="#ffffff">
                                    <path d="M18.8125,5.375c-1.85538,0 -3.35937,1.50399 -3.35937,3.35938v154.53125c0,1.85505 1.50399,3.35938 3.35938,3.35938h104.14063c1.85505,0 3.35938,-1.50433 3.35938,-3.35937v-10.07812h20.15625c5.55708,0 10.07813,-4.52105 10.07813,-10.07812c0,-5.55708 -4.52105,-10.07812 -10.07812,-10.07812h-20.15625v-40.3125c0,-1.85505 -1.50433,-3.35937 -3.35937,-3.35937c-1.85505,0 -3.35937,1.50433 -3.35937,3.35938v40.3125h-43.67187c-0.42731,0 -0.85121,0.08158 -1.24795,0.24014l-16.79687,6.71875c-1.44588,0.57848 -2.30886,2.07706 -2.07337,3.62708c0.17737,1.16369 0.95738,2.16493 2.07337,2.61139l16.79688,6.71875c0.39674,0.15856 0.82064,0.24014 1.24795,0.24014h43.67188v6.71875h-97.42187v-127.65625h97.42188c0,1.85538 1.50433,3.35938 3.35938,3.35938c1.85505,0 3.35938,-1.50399 3.35938,-3.35937v-23.51562c0,-1.85538 -1.50433,-3.35937 -3.35937,-3.35937zM22.17188,12.09375h97.42188v13.4375h-97.42187zM25.53125,15.45313v6.71875h6.71875v-6.71875zM35.60938,15.45313v6.71875h6.71875v-6.71875zM45.6875,15.45313v6.71875h6.71875v-6.71875zM32.25,38.96875c-1.85538,0 -3.35937,1.50399 -3.35937,3.35938v33.59375c0,1.85538 1.50399,3.35938 3.35938,3.35938h33.59375c1.85538,0 3.35938,-1.50399 3.35938,-3.35937v-33.59375c0,-1.85538 -1.50399,-3.35937 -3.35937,-3.35937zM89.35938,38.96875c-1.85505,0 -3.35937,1.50399 -3.35937,3.35938c0,1.85538 1.50433,3.35938 3.35938,3.35938h60.46875c1.85505,0 3.35938,-1.50399 3.35938,-3.35937c0,-1.85538 -1.50433,-3.35937 -3.35937,-3.35937zM35.60938,45.6875h26.875v26.875h-26.875zM46.71434,48.68732l-8.1642,20.87602h5.29561l1.70199,-5.01151h6.96611l1.73415,5.01151h5.29561l-8.1642,-20.87602zM89.35938,49.04688c-1.85505,0 -3.35937,1.50399 -3.35937,3.35938c0,1.85538 1.50433,3.35938 3.35938,3.35938h60.46875c1.85505,0 3.35938,-1.50399 3.35938,-3.35937c0,-1.85538 -1.50433,-3.35937 -3.35937,-3.35937zM49.04688,54.58197l2.61598,6.40775h-5.29561zM89.35938,59.125c-1.85505,0 -3.35937,1.50399 -3.35937,3.35938c0,1.85538 1.50433,3.35938 3.35938,3.35938h60.46875c1.85505,0 3.35938,-1.50399 3.35938,-3.35937c0,-1.85538 -1.50433,-3.35937 -3.35937,-3.35937zM89.35938,69.20313c-1.85505,0 -3.35937,1.50399 -3.35937,3.35938c0,1.85538 1.50433,3.35938 3.35938,3.35938h60.46875c1.85505,0 3.35938,-1.50399 3.35938,-3.35937c0,-1.85538 -1.50433,-3.35937 -3.35937,-3.35937zM89.35938,79.28125c-1.85505,0 -3.35937,1.50399 -3.35937,3.35938c0,1.85538 1.50433,3.35938 3.35938,3.35938h60.46875c1.85505,0 3.35938,-1.50399 3.35938,-3.35937c0,-1.85538 -1.50433,-3.35937 -3.35937,-3.35937zM32.25,89.35938c-1.85538,0 -3.35937,1.50433 -3.35937,3.35938c0,1.85505 1.50399,3.35938 3.35938,3.35938h77.26563c1.85505,0 3.35938,-1.50433 3.35938,-3.35937c0,-1.85505 -1.50433,-3.35937 -3.35937,-3.35937zM32.25,109.51563c-1.85538,0 -3.35937,1.50433 -3.35937,3.35938c0,1.85505 1.50399,3.35938 3.35938,3.35938h57.10938c1.85505,0 3.35938,-1.50433 3.35938,-3.35937c0,-1.85505 -1.50433,-3.35937 -3.35937,-3.35937zM32.25,119.59375c-1.85538,0 -3.35937,1.50433 -3.35937,3.35938c0,1.85505 1.50399,3.35938 3.35938,3.35938h57.10938c1.85505,0 3.35938,-1.50433 3.35938,-3.35937c0,-1.85505 -1.50433,-3.35937 -3.35937,-3.35937zM76.56882,139.75h59.82181v6.71875h-59.82181l-8.39844,-3.35937zM143.10938,139.75h3.35938c1.85236,0 3.35938,1.50702 3.35938,3.35938c0,1.85236 -1.50702,3.35938 -3.35937,3.35938h-3.35937z"></path>
                                </g>
                                <path d="" fill="none"></path>
                            </g>
                        </g>
                    </svg>